{
    "asset" : {
        "generator" : "Khronos glTF Blender I/O v1.7.33",
        "version" : "2.0"
    },
    "scene" : 0,
    "scenes" : [
        {
            "name" : "Scene",
            "nodes" : [
                0
            ]
        }
    ],
    "nodes" : [
        {
            "mesh" : 0,
            "name" : "Cube-Col"
        }
    ],
    "materials" : [
        {
            "doubleSided" : true,
            "name" : "BaseMaterial",
            "pbrMetallicRoughness" : {
                "baseColorFactor" : [
                    0.616264283657074,
                    0.054953426122665405,
                    0.8000000715255737,
                    1
                ],
                "metallicFactor" : 0,
                "roughnessFactor" : 0.4000000059604645
            }
        }
    ],
    "meshes" : [
        {
            "name" : "Cube.001",
            "primitives" : [
                {
                    "attributes" : {
                        "POSITION" : 0,
                        "NORMAL" : 1,
                        "TEXCOORD_0" : 2
                    },
                    "indices" : 3,
                    "material" : 0
                }
            ]
        }
    ],
    "accessors" : [
        {
            "bufferView" : 0,
            "componentType" : 5126,
            "count" : 975,
            "max" : [
                40,
                15.617639541625977,
                40.22671890258789
            ],
            "min" : [
                -30,
                -1,
                -55
            ],
            "type" : "VEC3"
        },
        {
            "bufferView" : 1,
            "componentType" : 5126,
            "count" : 975,
            "type" : "VEC3"
        },
        {
            "bufferView" : 2,
            "componentType" : 5126,
            "count" : 975,
            "type" : "VEC2"
        },
        {
            "bufferView" : 3,
            "componentType" : 5123,
            "count" : 2073,
            "type" : "SCALAR"
        }
    ],
    "bufferViews" : [
        {
            "buffer" : 0,
            "byteLength" : 11700,
            "byteOffset" : 0
        },
        {
            "buffer" : 0,
            "byteLength" : 11700,
            "byteOffset" : 11700
        },
        {
            "buffer" : 0,
            "byteLength" : 7800,
            "byteOffset" : 23400
        },
        {
            "buffer" : 0,
            "byteLength" : 4146,
            "byteOffset" : 31200
        }
    ],
    "buffers" : [
        {
            "byteLength" : 35348,
            "uri" : "MainLevel.bin"
        }
    ]
}
