{
    "asset" : {
        "generator" : "Khronos glTF Blender I/O v1.7.33",
        "version" : "2.0"
    },
    "scene" : 0,
    "scenes" : [
        {
            "name" : "Scene",
            "nodes" : [
                0
            ]
        }
    ],
    "nodes" : [
        {
            "mesh" : 0,
            "name" : "Cube-Col"
        }
    ],
    "materials" : [
        {
            "doubleSided" : true,
            "name" : "Roof",
            "pbrMetallicRoughness" : {
                "metallicFactor" : 0,
                "roughnessFactor" : 0.5
            }
        }
    ],
    "meshes" : [
        {
            "name" : "Cube.001",
            "primitives" : [
                {
                    "attributes" : {
                        "POSITION" : 0,
                        "NORMAL" : 1,
                        "TEXCOORD_0" : 2
                    },
                    "indices" : 3,
                    "material" : 0
                }
            ]
        }
    ],
    "accessors" : [
        {
            "bufferView" : 0,
            "componentType" : 5126,
            "count" : 1031,
            "max" : [
                40,
                16.032611846923828,
                40.22671890258789
            ],
            "min" : [
                -30,
                -1,
                -55
            ],
            "type" : "VEC3"
        },
        {
            "bufferView" : 1,
            "componentType" : 5126,
            "count" : 1031,
            "type" : "VEC3"
        },
        {
            "bufferView" : 2,
            "componentType" : 5126,
            "count" : 1031,
            "type" : "VEC2"
        },
        {
            "bufferView" : 3,
            "componentType" : 5123,
            "count" : 2145,
            "type" : "SCALAR"
        }
    ],
    "bufferViews" : [
        {
            "buffer" : 0,
            "byteLength" : 12372,
            "byteOffset" : 0
        },
        {
            "buffer" : 0,
            "byteLength" : 12372,
            "byteOffset" : 12372
        },
        {
            "buffer" : 0,
            "byteLength" : 8248,
            "byteOffset" : 24744
        },
        {
            "buffer" : 0,
            "byteLength" : 4290,
            "byteOffset" : 32992
        }
    ],
    "buffers" : [
        {
            "byteLength" : 37284,
            "uri" : "FinalMap.bin"
        }
    ]
}
